<svg xmlns="http://www.w3.org/2000/svg" width="25" height="25" viewBox="0 0 25 25">
  <g id="calendar" transform="translate(-2 -2)">
    <path id="Path_64079" data-name="Path 64079" d="M2,12V23.25A3.761,3.761,0,0,0,5.75,27h17.5A3.76,3.76,0,0,0,27,23.25V12Zm15.262,7.538-.737.237.45.625a1.247,1.247,0,0,1-.276,1.75,1.246,1.246,0,0,1-1.737-.275l-.463-.638-.463.638a1.233,1.233,0,0,1-1.013.511,1.2,1.2,0,0,1-.724-.237,1.246,1.246,0,0,1-.275-1.75l.45-.625-.737-.25a1.249,1.249,0,1,1,.775-2.374l.737.237v-.774a1.25,1.25,0,0,1,2.5,0V17.4l.737-.25a1.255,1.255,0,0,1,.775,2.388ZM23.25,4.5H22V3.25a1.25,1.25,0,0,0-2.5,0V4.5H9.5V3.25a1.25,1.25,0,0,0-2.5,0V4.5H5.75A3.761,3.761,0,0,0,2,8.25V9.5H27V8.25A3.76,3.76,0,0,0,23.25,4.5Z" fill="#c8beb3"/>
  </g>
</svg>
