<svg id="call_6_" data-name="call (6)" xmlns="http://www.w3.org/2000/svg" width="22" height="22" viewBox="0 0 22 22">
  <g id="Group_21837" data-name="Group 21837">
    <path id="Path_64074" data-name="Path 64074" d="M20.235,14.44a12.491,12.491,0,0,1-3.923-.625,1.793,1.793,0,0,0-1.744.368l-2.474,1.867A13.67,13.67,0,0,1,5.948,9.906L7.761,7.5a1.778,1.778,0,0,0,.437-1.8,12.51,12.51,0,0,1-.627-3.929A1.767,1.767,0,0,0,5.806,0H1.765A1.767,1.767,0,0,0,0,1.765,20.257,20.257,0,0,0,20.235,22,1.767,1.767,0,0,0,22,20.235V16.206A1.767,1.767,0,0,0,20.235,14.44Z" fill="#c8beb3"/>
  </g>
</svg>
