<svg xmlns="http://www.w3.org/2000/svg" width="33.137" height="24.111" viewBox="0 0 33.137 24.111">
  <g id="cloud-computing" transform="translate(0 -66.65)">
    <g id="Group_21840" data-name="Group 21840" transform="translate(0 66.65)">
      <path id="Path_64089" data-name="Path 64089" d="M25.892,90.761H18.783V83.577h2.35a.735.735,0,0,0,.6-1.165l-4.57-6.324a.728.728,0,0,0-1.185,0L11.4,82.413a.733.733,0,0,0,.6,1.165h2.35v7.184H6.385A7.121,7.121,0,0,1,0,83.638a6.745,6.745,0,0,1,3.345-5.823,4.522,4.522,0,0,1-.278-1.578,4.586,4.586,0,0,1,4.591-4.591,4.512,4.512,0,0,1,1.571.278,9.19,9.19,0,0,1,17.462,3.033,8,8,0,0,1-.8,15.8Z" transform="translate(0 -66.65)" fill="#c8beb3"/>
    </g>
  </g>
</svg>
