<svg xmlns="http://www.w3.org/2000/svg" width="29.631" height="20.834" viewBox="0 0 29.631 20.834">
  <g id="email_6_" data-name="email (6)" transform="translate(0 -76)">
    <g id="Group_21847" data-name="Group 21847" transform="translate(1.518 87.647)">
      <g id="Group_21846" data-name="Group 21846">
        <path id="Path_64102" data-name="Path 64102" d="M43.908,277.251l-2.482,2.49a2.747,2.747,0,0,1-3.805,0l-2.482-2.49-8.913,8.942a2.578,2.578,0,0,0,1.086.245H51.735a2.576,2.576,0,0,0,1.086-.245Z" transform="translate(-26.226 -277.251)" fill="#c8beb3"/>
      </g>
    </g>
    <g id="Group_21849" data-name="Group 21849" transform="translate(1.518 76)">
      <g id="Group_21848" data-name="Group 21848">
        <path id="Path_64103" data-name="Path 64103" d="M51.737,76H27.314a2.578,2.578,0,0,0-1.086.245L35.752,85.8h0v0l3.1,3.107a1.042,1.042,0,0,0,1.347,0L43.3,85.8v0h0l9.524-9.556A2.576,2.576,0,0,0,51.737,76Z" transform="translate(-26.228 -76)" fill="#c8beb3"/>
      </g>
    </g>
    <g id="Group_21851" data-name="Group 21851" transform="translate(0 77.459)">
      <g id="Group_21850" data-name="Group 21850">
        <path id="Path_64104" data-name="Path 64104" d="M.277,101.212A2.572,2.572,0,0,0,0,102.357v15.626a2.571,2.571,0,0,0,.277,1.145l8.929-8.958Z" transform="translate(0 -101.212)" fill="#c8beb3"/>
      </g>
    </g>
    <g id="Group_21853" data-name="Group 21853" transform="translate(20.425 77.459)">
      <g id="Group_21852" data-name="Group 21852">
        <path id="Path_64105" data-name="Path 64105" d="M361.862,101.21l-8.929,8.958,8.929,8.958a2.573,2.573,0,0,0,.277-1.145V102.355A2.573,2.573,0,0,0,361.862,101.21Z" transform="translate(-352.933 -101.21)" fill="#c8beb3"/>
      </g>
    </g>
  </g>
</svg>
