<svg xmlns="http://www.w3.org/2000/svg" width="34.218" height="20.542" viewBox="0 0 34.218 20.542">
  <g id="_x33_3.FontCase" transform="translate(-6.001 -105.924)">
    <path id="Path_64075" data-name="Path 64075" d="M21.289,126.45a.859.859,0,0,1-.873-.635c-.307-.853-.615-1.706-.911-2.563a.278.278,0,0,0-.316-.223q-3.789.01-7.578,0a.28.28,0,0,0-.32.222c-.289.842-.592,1.679-.894,2.516a.887.887,0,0,1-.978.683c-.825,0-1.651,0-2.476,0a.861.861,0,0,1-.87-1.229c.613-1.735,6.13-17.258,6.406-18.026a1.709,1.709,0,0,1,1.789-1.27q1.138,0,2.276,0a1.713,1.713,0,0,1,1.766,1.235c.188.5,5.914,16.637,6.411,18.05a.863.863,0,0,1-.881,1.241C23.407,126.453,21.706,126.454,21.289,126.45Zm-5.9-14.615-2.468,6.9h4.949Z" fill="#c8beb3"/>
    <path id="Path_64076" data-name="Path 64076" d="M319.6,181.666a.894.894,0,0,0-1-1.007c-.451,0-.9,0-1.351,0-.691,0-.972.234-1.093.94l-.239-.119a6.528,6.528,0,0,0-6.306-.023,6.6,6.6,0,0,0-3.68,5.785c-.039.665,0,1.333-.015,2a5.881,5.881,0,0,0,.3,1.993,6.768,6.768,0,0,0,4.905,4.623,6.344,6.344,0,0,0,3.994-.242c.344-.132.674-.3,1.011-.448a1,1,0,0,0,1.1.913c.458-.016.918-.016,1.376,0a.947.947,0,0,0,1.009-1.006C319.6,190.6,319.6,186.134,319.6,181.666Zm-4.277,7.545a2.569,2.569,0,1,1-5.139,0v-1.7a2.569,2.569,0,1,1,5.139,0v1.7Z" transform="translate(-279.394 -69.617)" fill="#c8beb3"/>
  </g>
</svg>
