<svg xmlns="http://www.w3.org/2000/svg" width="50" height="50" viewBox="0 0 50 50">
  <g id="Group_21855" data-name="Group 21855" transform="translate(-1057 -219)">
    <rect id="Rectangle_8909" data-name="Rectangle 8909" width="50" height="50" rx="6" transform="translate(1057 219)" fill="#f5f5f5"/>
    <g id="pencil_7_" data-name="pencil (7)" transform="translate(1071 233)">
      <g id="Group_21855-2" data-name="Group 21855" transform="translate(15.836 0)">
        <g id="Group_21854" data-name="Group 21854" transform="translate(0 0)">
          <path id="Path_64108" data-name="Path 64108" d="M360.935,2.782,358.863.71a2.431,2.431,0,0,0-3.434,0l-.811.811,5.505,5.506.811-.811A2.427,2.427,0,0,0,360.935,2.782Z" transform="translate(-354.619 0)" fill="#c8beb3"/>
        </g>
      </g>
      <g id="Group_21857" data-name="Group 21857" transform="translate(0 16.824)">
        <g id="Group_21856" data-name="Group 21856" transform="translate(0)">
          <path id="Path_64109" data-name="Path 64109" d="M.983,376.747.011,382a.67.67,0,0,0,.781.781L6.04,381.8Z" transform="translate(0 -376.747)" fill="#c8beb3"/>
        </g>
      </g>
      <g id="Group_21859" data-name="Group 21859" transform="translate(1.706 2.468)">
        <g id="Group_21858" data-name="Group 21858">
          <path id="Path_64110" data-name="Path 64110" d="M51.381,55.274,38.2,68.458,43.7,73.964,56.886,60.78Z" transform="translate(-38.198 -55.274)" fill="#c8beb3"/>
        </g>
      </g>
    </g>
  </g>
</svg>
