<svg xmlns="http://www.w3.org/2000/svg" width="27.9" height="27.9" viewBox="0 0 27.9 27.9">
  <g id="hyperlink" transform="translate(-1 -1)">
    <path id="Path_64100" data-name="Path 64100" d="M14.95,1A13.95,13.95,0,1,0,28.9,14.95,13.967,13.967,0,0,0,14.95,1ZM8.812,21.088a5.493,5.493,0,0,1-.093-7.71.938.938,0,0,1,1.321-.028.926.926,0,0,1,.028,1.311,3.654,3.654,0,0,0,5.161,5.171.934.934,0,0,1,1.293,1.349,5.562,5.562,0,0,1-7.71-.093Zm3.162-4.483,4.631-4.631a.926.926,0,0,1,1.311,0,.937.937,0,0,1,0,1.321l-4.622,4.631a.943.943,0,0,1-1.321,0A.937.937,0,0,1,11.974,16.605Zm9.1.009-.214.223a.969.969,0,0,1-.66.27.953.953,0,0,1-.66-.27.937.937,0,0,1,0-1.321l.223-.223a3.648,3.648,0,0,0,0-5.161,3.724,3.724,0,0,0-5.161,0l-.223.223a.934.934,0,1,1-1.321-1.321l.223-.223a5.514,5.514,0,1,1,7.793,7.8Z" fill="#c8beb3"/>
  </g>
</svg>
