<svg xmlns="http://www.w3.org/2000/svg" width="22.922" height="25.006" viewBox="0 0 22.922 25.006">
  <g id="ringing_1_" data-name="ringing (1)" transform="translate(-1)">
    <g id="Group_21841" data-name="Group 21841" transform="translate(18.329 0.781)">
      <path id="Path_64090" data-name="Path 64090" d="M22.183,11.307a1.042,1.042,0,0,1-1.042-1.042,10.871,10.871,0,0,0-3.2-7.736,1.042,1.042,0,0,1,1.473-1.473,12.938,12.938,0,0,1,3.814,9.209,1.042,1.042,0,0,1-1.042,1.042Z" transform="translate(-17.632 -0.75)" fill="#c8beb3"/>
    </g>
    <g id="Group_21842" data-name="Group 21842" transform="translate(1 0.781)">
      <path id="Path_64091" data-name="Path 64091" d="M2.042,11.307A1.042,1.042,0,0,1,1,10.265,12.938,12.938,0,0,1,4.814,1.055,1.042,1.042,0,1,1,6.288,2.529a10.869,10.869,0,0,0-3.2,7.736,1.042,1.042,0,0,1-1.042,1.042Z" transform="translate(-1 -0.75)" fill="#c8beb3"/>
    </g>
    <g id="Group_21843" data-name="Group 21843" transform="translate(2.042 0)">
      <path id="Path_64092" data-name="Path 64092" d="M22.191,17.622a6.979,6.979,0,0,1-2.479-5.34v-2.9a7.3,7.3,0,0,0-6.251-7.21V1.042a1.042,1.042,0,1,0-2.084,0V2.167a7.3,7.3,0,0,0-6.251,7.21v2.9A6.986,6.986,0,0,1,2.638,17.63a1.823,1.823,0,0,0,1.186,3.208H21.015a1.823,1.823,0,0,0,1.176-3.216Z" transform="translate(-2 0)" fill="#c8beb3"/>
      <path id="Path_64093" data-name="Path 64093" d="M12.154,24.126A3.913,3.913,0,0,0,15.982,21H8.326A3.913,3.913,0,0,0,12.154,24.126Z" transform="translate(-1.735 0.88)" fill="#c8beb3"/>
    </g>
  </g>
</svg>
