<svg xmlns="http://www.w3.org/2000/svg" width="30.931" height="25.307" viewBox="0 0 30.931 25.307">
  <path id="Union_63" data-name="Union 63" d="M4967.933-1250.693a.937.937,0,0,1-.937-.938v-4.686a.937.937,0,0,1,.938-.937h6.561a.937.937,0,0,1,.938.937v4.686a.938.938,0,0,1-.938.938Zm-11.248,0a.936.936,0,0,1-.937-.938v-4.686a.936.936,0,0,1,.937-.937h6.562a.937.937,0,0,1,.937.937v4.686a.937.937,0,0,1-.937.938Zm-11.247,0a.938.938,0,0,1-.938-.938v-4.686a.937.937,0,0,1,.938-.937H4952a.937.937,0,0,1,.938.937v4.686a.937.937,0,0,1-.937.938Zm22.495-9.372A.937.937,0,0,1,4967-1261v-4.686a.937.937,0,0,1,.938-.938h6.561a.938.938,0,0,1,.938.938V-1261a.938.938,0,0,1-.938.938Zm-11.248,0a.936.936,0,0,1-.937-.938v-4.686a.936.936,0,0,1,.937-.938h6.562a.937.937,0,0,1,.937.938V-1261a.937.937,0,0,1-.937.938Zm-11.247,0a.938.938,0,0,1-.938-.938v-4.686a.938.938,0,0,1,.938-.938H4952a.937.937,0,0,1,.938.938V-1261a.937.937,0,0,1-.937.938Zm22.495-9.374a.937.937,0,0,1-.937-.937v-4.687a.937.937,0,0,1,.938-.937h6.561a.937.937,0,0,1,.938.937v4.688a.937.937,0,0,1-.938.937Zm-11.248,0a.936.936,0,0,1-.937-.937v-4.687a.936.936,0,0,1,.937-.937h6.562a.937.937,0,0,1,.937.937v4.688a.937.937,0,0,1-.937.937Zm-11.247,0a.937.937,0,0,1-.938-.937v-4.687a.937.937,0,0,1,.938-.937H4952a.937.937,0,0,1,.938.937v4.688a.937.937,0,0,1-.937.937Z" transform="translate(-4944.5 1276)" fill="#c8beb3"/>
</svg>
